<mxfile host="app.diagrams.net" modified="2022-11-29T18:57:11.266Z" agent="5.0 (Windows NT 10.0; Win64; x64) AppleWebKit/537.36 (KHTML, like Gecko) Chrome/107.0.0.0 Safari/537.36" etag="MmSCBvh0Ocz3srkD4cne" version="20.5.3" type="github">
  <diagram id="MKr1GWrbo1VAs8ZUZlne" name="Page-1">
    <mxGraphModel dx="862" dy="500" grid="1" gridSize="10" guides="1" tooltips="1" connect="1" arrows="1" fold="1" page="1" pageScale="1" pageWidth="850" pageHeight="1100" math="0" shadow="0">
      <root>
        <mxCell id="0" />
        <mxCell id="1" parent="0" />
        <mxCell id="NQuVq-s22UP6wrSI71qQ-2" value="Vehicle Service Center UI" style="swimlane;whiteSpace=wrap;html=1;align=left;fontSize=10;" parent="1" vertex="1">
          <mxGeometry x="80" y="102" width="759" height="520" as="geometry" />
        </mxCell>
        <mxCell id="tfCY2UT2nl94X6TJJSbJ-14" style="edgeStyle=orthogonalEdgeStyle;rounded=0;orthogonalLoop=1;jettySize=auto;html=1;entryX=0.583;entryY=0;entryDx=0;entryDy=0;entryPerimeter=0;dashed=1;fontSize=12;startArrow=none;startFill=0;endArrow=open;endFill=0;" edge="1" parent="NQuVq-s22UP6wrSI71qQ-2" source="tfCY2UT2nl94X6TJJSbJ-15" target="NQuVq-s22UP6wrSI71qQ-8">
          <mxGeometry relative="1" as="geometry">
            <Array as="points">
              <mxPoint x="372" y="128" />
              <mxPoint x="372" y="155" />
              <mxPoint x="412" y="155" />
            </Array>
          </mxGeometry>
        </mxCell>
        <mxCell id="NQuVq-s22UP6wrSI71qQ-3" value="Create_JS" style="ellipse;whiteSpace=wrap;html=1;fontSize=10;" parent="NQuVq-s22UP6wrSI71qQ-2" vertex="1">
          <mxGeometry x="330" y="60" width="85" height="30" as="geometry" />
        </mxCell>
        <mxCell id="NQuVq-s22UP6wrSI71qQ-26" style="edgeStyle=orthogonalEdgeStyle;rounded=0;orthogonalLoop=1;jettySize=auto;html=1;entryX=1;entryY=0;entryDx=0;entryDy=0;dashed=1;fontSize=10;endArrow=none;endFill=0;startArrow=none;" parent="NQuVq-s22UP6wrSI71qQ-2" source="NQuVq-s22UP6wrSI71qQ-27" target="NQuVq-s22UP6wrSI71qQ-8" edge="1">
          <mxGeometry relative="1" as="geometry">
            <Array as="points">
              <mxPoint x="427" y="138" />
              <mxPoint x="427" y="176" />
            </Array>
          </mxGeometry>
        </mxCell>
        <mxCell id="NQuVq-s22UP6wrSI71qQ-4" value="Print_JS" style="ellipse;whiteSpace=wrap;html=1;fontSize=10;" parent="NQuVq-s22UP6wrSI71qQ-2" vertex="1">
          <mxGeometry x="462" y="60" width="85" height="30" as="geometry" />
        </mxCell>
        <mxCell id="tfCY2UT2nl94X6TJJSbJ-2" style="edgeStyle=orthogonalEdgeStyle;rounded=0;orthogonalLoop=1;jettySize=auto;html=1;entryX=0.5;entryY=0;entryDx=0;entryDy=0;fontSize=12;startArrow=none;startFill=0;endArrow=none;endFill=0;dashed=1;" edge="1" parent="NQuVq-s22UP6wrSI71qQ-2" source="tfCY2UT2nl94X6TJJSbJ-3" target="NQuVq-s22UP6wrSI71qQ-44">
          <mxGeometry relative="1" as="geometry">
            <mxPoint x="563" y="280" as="sourcePoint" />
            <Array as="points">
              <mxPoint x="617" y="270" />
            </Array>
          </mxGeometry>
        </mxCell>
        <mxCell id="NQuVq-s22UP6wrSI71qQ-8" value="Job_Sheet" style="ellipse;whiteSpace=wrap;html=1;" parent="NQuVq-s22UP6wrSI71qQ-2" vertex="1">
          <mxGeometry x="342" y="170" width="120" height="40" as="geometry" />
        </mxCell>
        <mxCell id="NQuVq-s22UP6wrSI71qQ-31" style="edgeStyle=orthogonalEdgeStyle;rounded=0;orthogonalLoop=1;jettySize=auto;html=1;dashed=1;fontSize=10;startArrow=none;startFill=0;endArrow=open;endFill=0;entryX=1;entryY=0.5;entryDx=0;entryDy=0;" parent="NQuVq-s22UP6wrSI71qQ-2" source="NQuVq-s22UP6wrSI71qQ-35" target="NQuVq-s22UP6wrSI71qQ-8" edge="1">
          <mxGeometry relative="1" as="geometry">
            <Array as="points" />
          </mxGeometry>
        </mxCell>
        <mxCell id="NQuVq-s22UP6wrSI71qQ-22" value="Job_Notes" style="ellipse;whiteSpace=wrap;html=1;fontSize=10;" parent="NQuVq-s22UP6wrSI71qQ-2" vertex="1">
          <mxGeometry x="547" y="117.5" width="120" height="40" as="geometry" />
        </mxCell>
        <mxCell id="NQuVq-s22UP6wrSI71qQ-27" value="&amp;lt;&amp;lt;extend&amp;gt;&amp;gt;" style="text;html=1;strokeColor=none;fillColor=none;align=center;verticalAlign=middle;whiteSpace=wrap;rounded=0;labelBorderColor=none;fontSize=10;" parent="NQuVq-s22UP6wrSI71qQ-2" vertex="1">
          <mxGeometry x="446" y="130" width="35" height="15" as="geometry" />
        </mxCell>
        <mxCell id="NQuVq-s22UP6wrSI71qQ-28" value="" style="edgeStyle=orthogonalEdgeStyle;rounded=0;orthogonalLoop=1;jettySize=auto;html=1;entryX=0.984;entryY=0.63;entryDx=0;entryDy=0;dashed=1;fontSize=10;endArrow=none;endFill=0;entryPerimeter=0;startArrow=open;startFill=0;" parent="NQuVq-s22UP6wrSI71qQ-2" source="NQuVq-s22UP6wrSI71qQ-4" target="NQuVq-s22UP6wrSI71qQ-27" edge="1">
          <mxGeometry relative="1" as="geometry">
            <mxPoint x="552" y="220" as="sourcePoint" />
            <mxPoint x="509.1804628555624" y="295.77635554870585" as="targetPoint" />
            <Array as="points">
              <mxPoint x="497" y="140" />
            </Array>
          </mxGeometry>
        </mxCell>
        <mxCell id="NQuVq-s22UP6wrSI71qQ-30" style="edgeStyle=orthogonalEdgeStyle;rounded=0;orthogonalLoop=1;jettySize=auto;html=1;entryX=1;entryY=1;entryDx=0;entryDy=0;dashed=1;fontSize=10;startArrow=none;startFill=0;endArrow=open;endFill=0;" parent="NQuVq-s22UP6wrSI71qQ-2" source="NQuVq-s22UP6wrSI71qQ-32" target="NQuVq-s22UP6wrSI71qQ-8" edge="1">
          <mxGeometry relative="1" as="geometry">
            <Array as="points">
              <mxPoint x="444" y="237" />
              <mxPoint x="444" y="204" />
            </Array>
          </mxGeometry>
        </mxCell>
        <mxCell id="NQuVq-s22UP6wrSI71qQ-29" value="Spare_Parts" style="ellipse;whiteSpace=wrap;html=1;fontSize=10;" parent="NQuVq-s22UP6wrSI71qQ-2" vertex="1">
          <mxGeometry x="547" y="182.5" width="120" height="40" as="geometry" />
        </mxCell>
        <mxCell id="NQuVq-s22UP6wrSI71qQ-32" value="&amp;lt;&amp;lt;include&amp;gt;&amp;gt;" style="text;html=1;strokeColor=none;fillColor=none;align=center;verticalAlign=middle;whiteSpace=wrap;rounded=0;labelBorderColor=none;fontSize=10;" parent="NQuVq-s22UP6wrSI71qQ-2" vertex="1">
          <mxGeometry x="507" y="230" width="35" height="15" as="geometry" />
        </mxCell>
        <mxCell id="NQuVq-s22UP6wrSI71qQ-34" value="" style="edgeStyle=orthogonalEdgeStyle;rounded=0;orthogonalLoop=1;jettySize=auto;html=1;entryX=1.024;entryY=0.628;entryDx=0;entryDy=0;dashed=1;fontSize=10;startArrow=none;startFill=0;endArrow=none;endFill=0;entryPerimeter=0;exitX=0.5;exitY=1;exitDx=0;exitDy=0;" parent="NQuVq-s22UP6wrSI71qQ-2" source="NQuVq-s22UP6wrSI71qQ-29" target="NQuVq-s22UP6wrSI71qQ-32" edge="1">
          <mxGeometry relative="1" as="geometry">
            <mxPoint x="647" y="250" as="sourcePoint" />
            <mxPoint x="542.455" y="255.2249999999999" as="targetPoint" />
            <Array as="points">
              <mxPoint x="607" y="240" />
              <mxPoint x="567" y="240" />
            </Array>
          </mxGeometry>
        </mxCell>
        <mxCell id="NQuVq-s22UP6wrSI71qQ-35" value="&amp;lt;&amp;lt;include&amp;gt;&amp;gt;" style="text;html=1;strokeColor=none;fillColor=none;align=center;verticalAlign=middle;whiteSpace=wrap;rounded=0;labelBorderColor=none;fontSize=10;rotation=0;" parent="NQuVq-s22UP6wrSI71qQ-2" vertex="1">
          <mxGeometry x="497" y="182.5" width="35" height="15" as="geometry" />
        </mxCell>
        <mxCell id="NQuVq-s22UP6wrSI71qQ-37" value="" style="edgeStyle=orthogonalEdgeStyle;rounded=0;orthogonalLoop=1;jettySize=auto;html=1;dashed=1;fontSize=10;startArrow=none;startFill=0;endArrow=none;endFill=0;entryX=1;entryY=0.5;entryDx=0;entryDy=0;" parent="NQuVq-s22UP6wrSI71qQ-2" source="NQuVq-s22UP6wrSI71qQ-22" target="NQuVq-s22UP6wrSI71qQ-35" edge="1">
          <mxGeometry relative="1" as="geometry">
            <mxPoint x="672" y="277.5" as="sourcePoint" />
            <mxPoint x="527" y="310" as="targetPoint" />
            <Array as="points">
              <mxPoint x="547" y="190" />
            </Array>
          </mxGeometry>
        </mxCell>
        <mxCell id="NQuVq-s22UP6wrSI71qQ-40" value="&amp;lt;&amp;lt;extend&amp;gt;&amp;gt;" style="text;html=1;strokeColor=none;fillColor=none;align=center;verticalAlign=middle;whiteSpace=wrap;rounded=0;labelBorderColor=none;fontSize=10;rotation=90;" parent="NQuVq-s22UP6wrSI71qQ-2" vertex="1">
          <mxGeometry x="385" y="260" width="35" height="15" as="geometry" />
        </mxCell>
        <mxCell id="NQuVq-s22UP6wrSI71qQ-41" value="" style="edgeStyle=orthogonalEdgeStyle;rounded=0;orthogonalLoop=1;jettySize=auto;html=1;entryX=0.033;entryY=0.536;entryDx=0;entryDy=0;dashed=1;fontSize=10;startArrow=none;startFill=0;endArrow=none;endFill=0;entryPerimeter=0;" parent="NQuVq-s22UP6wrSI71qQ-2" source="NQuVq-s22UP6wrSI71qQ-8" target="NQuVq-s22UP6wrSI71qQ-40" edge="1">
          <mxGeometry relative="1" as="geometry">
            <mxPoint x="402" y="210" as="sourcePoint" />
            <mxPoint x="402" y="330" as="targetPoint" />
            <Array as="points" />
          </mxGeometry>
        </mxCell>
        <mxCell id="NQuVq-s22UP6wrSI71qQ-44" value="Records" style="ellipse;whiteSpace=wrap;html=1;fontSize=10;" parent="NQuVq-s22UP6wrSI71qQ-2" vertex="1">
          <mxGeometry x="557" y="400" width="120" height="40" as="geometry" />
        </mxCell>
        <mxCell id="NQuVq-s22UP6wrSI71qQ-46" style="edgeStyle=orthogonalEdgeStyle;rounded=0;orthogonalLoop=1;jettySize=auto;html=1;entryX=0;entryY=0.5;entryDx=0;entryDy=0;fontSize=10;startArrow=none;startFill=0;endArrow=none;endFill=0;dashed=1;" parent="NQuVq-s22UP6wrSI71qQ-2" source="NQuVq-s22UP6wrSI71qQ-49" target="NQuVq-s22UP6wrSI71qQ-44" edge="1">
          <mxGeometry relative="1" as="geometry">
            <mxPoint x="457" y="400" as="sourcePoint" />
            <Array as="points">
              <mxPoint x="467" y="393" />
              <mxPoint x="467" y="420" />
            </Array>
          </mxGeometry>
        </mxCell>
        <mxCell id="NQuVq-s22UP6wrSI71qQ-45" value="Labour_Charges" style="ellipse;whiteSpace=wrap;html=1;fontSize=10;" parent="NQuVq-s22UP6wrSI71qQ-2" vertex="1">
          <mxGeometry x="510" y="325" width="93" height="30" as="geometry" />
        </mxCell>
        <mxCell id="NQuVq-s22UP6wrSI71qQ-47" value="SP_Record_info" style="ellipse;whiteSpace=wrap;html=1;fontSize=10;" parent="NQuVq-s22UP6wrSI71qQ-2" vertex="1">
          <mxGeometry x="627" y="320" width="120" height="40" as="geometry" />
        </mxCell>
        <mxCell id="NQuVq-s22UP6wrSI71qQ-53" style="edgeStyle=orthogonalEdgeStyle;rounded=0;orthogonalLoop=1;jettySize=auto;html=1;fontSize=10;startArrow=none;startFill=0;endArrow=open;endFill=0;dashed=1;entryX=0.512;entryY=1.001;entryDx=0;entryDy=0;entryPerimeter=0;" parent="NQuVq-s22UP6wrSI71qQ-2" source="NQuVq-s22UP6wrSI71qQ-49" target="NQuVq-s22UP6wrSI71qQ-45" edge="1">
          <mxGeometry relative="1" as="geometry">
            <Array as="points">
              <mxPoint x="557" y="393" />
              <mxPoint x="557" y="356" />
              <mxPoint x="558" y="356" />
            </Array>
            <mxPoint x="570" y="370" as="targetPoint" />
          </mxGeometry>
        </mxCell>
        <mxCell id="NQuVq-s22UP6wrSI71qQ-49" value="&amp;lt;&amp;lt;include&amp;gt;&amp;gt;" style="text;html=1;strokeColor=none;fillColor=none;align=center;verticalAlign=middle;whiteSpace=wrap;rounded=0;labelBorderColor=none;fontSize=10;" parent="NQuVq-s22UP6wrSI71qQ-2" vertex="1">
          <mxGeometry x="487" y="385" width="35" height="15" as="geometry" />
        </mxCell>
        <mxCell id="NQuVq-s22UP6wrSI71qQ-56" style="edgeStyle=orthogonalEdgeStyle;rounded=0;orthogonalLoop=1;jettySize=auto;html=1;entryX=0.5;entryY=1;entryDx=0;entryDy=0;dashed=1;fontSize=10;startArrow=none;startFill=0;endArrow=open;endFill=0;" parent="NQuVq-s22UP6wrSI71qQ-2" source="NQuVq-s22UP6wrSI71qQ-54" target="NQuVq-s22UP6wrSI71qQ-47" edge="1">
          <mxGeometry relative="1" as="geometry">
            <Array as="points">
              <mxPoint x="687" y="430" />
              <mxPoint x="687" y="430" />
            </Array>
          </mxGeometry>
        </mxCell>
        <mxCell id="NQuVq-s22UP6wrSI71qQ-57" style="edgeStyle=orthogonalEdgeStyle;rounded=0;orthogonalLoop=1;jettySize=auto;html=1;entryX=0.5;entryY=1;entryDx=0;entryDy=0;dashed=1;fontSize=10;startArrow=none;startFill=0;endArrow=none;endFill=0;" parent="NQuVq-s22UP6wrSI71qQ-2" source="NQuVq-s22UP6wrSI71qQ-54" target="NQuVq-s22UP6wrSI71qQ-44" edge="1">
          <mxGeometry relative="1" as="geometry">
            <mxPoint x="713" y="450" as="sourcePoint" />
            <Array as="points">
              <mxPoint x="633" y="461" />
              <mxPoint x="617" y="460" />
            </Array>
          </mxGeometry>
        </mxCell>
        <mxCell id="NQuVq-s22UP6wrSI71qQ-59" value="Prototype" style="swimlane;whiteSpace=wrap;html=1;labelBorderColor=none;strokeColor=default;fontSize=10;fillColor=none;" parent="NQuVq-s22UP6wrSI71qQ-2" vertex="1">
          <mxGeometry x="40" y="250" width="257.5" height="257.5" as="geometry" />
        </mxCell>
        <mxCell id="NQuVq-s22UP6wrSI71qQ-60" value="Vehicle_Test_Data" style="ellipse;whiteSpace=wrap;html=1;fontSize=12;" parent="NQuVq-s22UP6wrSI71qQ-59" vertex="1">
          <mxGeometry x="58.75" y="33.75" width="140" height="26.25" as="geometry" />
        </mxCell>
        <mxCell id="NQuVq-s22UP6wrSI71qQ-61" value="Users" style="ellipse;whiteSpace=wrap;html=1;fontSize=10;" parent="NQuVq-s22UP6wrSI71qQ-59" vertex="1">
          <mxGeometry x="96.88" y="118.13" width="63.75" height="21.25" as="geometry" />
        </mxCell>
        <mxCell id="NQuVq-s22UP6wrSI71qQ-65" style="edgeStyle=orthogonalEdgeStyle;rounded=0;orthogonalLoop=1;jettySize=auto;html=1;fontSize=10;startArrow=none;startFill=0;endArrow=open;endFill=0;entryX=1;entryY=0.5;entryDx=0;entryDy=0;exitX=0.028;exitY=0.538;exitDx=0;exitDy=0;exitPerimeter=0;dashed=1;" parent="NQuVq-s22UP6wrSI71qQ-59" source="NQuVq-s22UP6wrSI71qQ-64" target="NQuVq-s22UP6wrSI71qQ-61" edge="1">
          <mxGeometry relative="1" as="geometry">
            <mxPoint x="80" y="118.75" as="targetPoint" />
            <Array as="points">
              <mxPoint x="190" y="129" />
            </Array>
          </mxGeometry>
        </mxCell>
        <mxCell id="NQuVq-s22UP6wrSI71qQ-62" value="Create" style="ellipse;whiteSpace=wrap;html=1;fontSize=10;" parent="NQuVq-s22UP6wrSI71qQ-59" vertex="1">
          <mxGeometry x="160.63" y="78.75" width="63.75" height="21.25" as="geometry" />
        </mxCell>
        <mxCell id="NQuVq-s22UP6wrSI71qQ-63" value="Manage" style="ellipse;whiteSpace=wrap;html=1;fontSize=10;" parent="NQuVq-s22UP6wrSI71qQ-59" vertex="1">
          <mxGeometry x="160.63" y="178.75" width="63.75" height="21.25" as="geometry" />
        </mxCell>
        <mxCell id="NQuVq-s22UP6wrSI71qQ-71" style="edgeStyle=orthogonalEdgeStyle;rounded=0;orthogonalLoop=1;jettySize=auto;html=1;entryX=1;entryY=0.5;entryDx=0;entryDy=0;dashed=1;fontSize=10;startArrow=none;startFill=0;endArrow=none;endFill=0;" parent="NQuVq-s22UP6wrSI71qQ-59" source="NQuVq-s22UP6wrSI71qQ-64" target="NQuVq-s22UP6wrSI71qQ-62" edge="1">
          <mxGeometry relative="1" as="geometry">
            <Array as="points">
              <mxPoint x="244" y="129" />
              <mxPoint x="244" y="89" />
            </Array>
          </mxGeometry>
        </mxCell>
        <mxCell id="NQuVq-s22UP6wrSI71qQ-64" value="&amp;lt;&amp;lt;include&amp;gt;&amp;gt;" style="text;html=1;strokeColor=none;fillColor=none;align=center;verticalAlign=middle;whiteSpace=wrap;rounded=0;labelBorderColor=none;fontSize=10;" parent="NQuVq-s22UP6wrSI71qQ-59" vertex="1">
          <mxGeometry x="193.75" y="121.25999999999999" width="35" height="15" as="geometry" />
        </mxCell>
        <mxCell id="NQuVq-s22UP6wrSI71qQ-68" style="edgeStyle=orthogonalEdgeStyle;rounded=0;orthogonalLoop=1;jettySize=auto;html=1;entryX=0.5;entryY=0;entryDx=0;entryDy=0;dashed=1;fontSize=10;startArrow=none;startFill=0;endArrow=none;endFill=0;" parent="NQuVq-s22UP6wrSI71qQ-59" source="NQuVq-s22UP6wrSI71qQ-67" target="NQuVq-s22UP6wrSI71qQ-63" edge="1">
          <mxGeometry relative="1" as="geometry">
            <Array as="points">
              <mxPoint x="152" y="170" />
              <mxPoint x="193" y="170" />
            </Array>
          </mxGeometry>
        </mxCell>
        <mxCell id="NQuVq-s22UP6wrSI71qQ-69" style="edgeStyle=orthogonalEdgeStyle;rounded=0;orthogonalLoop=1;jettySize=auto;html=1;entryX=0;entryY=1;entryDx=0;entryDy=0;dashed=1;fontSize=10;startArrow=none;startFill=0;endArrow=open;endFill=0;exitX=0.004;exitY=0.609;exitDx=0;exitDy=0;exitPerimeter=0;" parent="NQuVq-s22UP6wrSI71qQ-59" source="NQuVq-s22UP6wrSI71qQ-67" target="NQuVq-s22UP6wrSI71qQ-61" edge="1">
          <mxGeometry relative="1" as="geometry">
            <mxPoint x="119.88" y="170.25" as="sourcePoint" />
            <mxPoint x="128.755" y="139.38" as="targetPoint" />
          </mxGeometry>
        </mxCell>
        <mxCell id="NQuVq-s22UP6wrSI71qQ-67" value="&amp;lt;&amp;lt;include&amp;gt;&amp;gt;" style="text;html=1;strokeColor=none;fillColor=none;align=center;verticalAlign=middle;whiteSpace=wrap;rounded=0;labelBorderColor=none;fontSize=10;" parent="NQuVq-s22UP6wrSI71qQ-59" vertex="1">
          <mxGeometry x="144.38" y="161.75" width="35" height="15" as="geometry" />
        </mxCell>
        <mxCell id="NQuVq-s22UP6wrSI71qQ-72" value="Twitter_API" style="ellipse;whiteSpace=wrap;html=1;" parent="NQuVq-s22UP6wrSI71qQ-59" vertex="1">
          <mxGeometry x="78.13" y="215.75" width="101.25" height="26.25" as="geometry" />
        </mxCell>
        <mxCell id="NQuVq-s22UP6wrSI71qQ-54" value="&amp;lt;&amp;lt;include&amp;gt;&amp;gt;" style="text;html=1;strokeColor=none;fillColor=none;align=center;verticalAlign=middle;whiteSpace=wrap;rounded=0;labelBorderColor=none;fontSize=10;" parent="NQuVq-s22UP6wrSI71qQ-2" vertex="1">
          <mxGeometry x="638" y="453.75" width="35" height="15" as="geometry" />
        </mxCell>
        <mxCell id="tfCY2UT2nl94X6TJJSbJ-3" value="&amp;lt;&amp;lt;extend&amp;gt;&amp;gt;" style="text;html=1;strokeColor=none;fillColor=none;align=center;verticalAlign=middle;whiteSpace=wrap;rounded=0;labelBorderColor=none;fontSize=10;" vertex="1" parent="NQuVq-s22UP6wrSI71qQ-2">
          <mxGeometry x="510" y="262" width="35" height="15" as="geometry" />
        </mxCell>
        <mxCell id="tfCY2UT2nl94X6TJJSbJ-4" value="" style="edgeStyle=orthogonalEdgeStyle;rounded=0;orthogonalLoop=1;jettySize=auto;html=1;entryX=0;entryY=0.75;entryDx=0;entryDy=0;fontSize=12;startArrow=open;startFill=0;endArrow=none;endFill=0;dashed=1;" edge="1" parent="NQuVq-s22UP6wrSI71qQ-2" source="NQuVq-s22UP6wrSI71qQ-8" target="tfCY2UT2nl94X6TJJSbJ-3">
          <mxGeometry relative="1" as="geometry">
            <mxPoint x="521.9999999999998" y="328.73499399519517" as="sourcePoint" />
            <mxPoint x="716" y="520" as="targetPoint" />
            <Array as="points">
              <mxPoint x="433" y="271" />
            </Array>
          </mxGeometry>
        </mxCell>
        <mxCell id="tfCY2UT2nl94X6TJJSbJ-15" value="&amp;lt;&amp;lt;include&amp;gt;&amp;gt;" style="text;html=1;strokeColor=none;fillColor=none;align=center;verticalAlign=middle;whiteSpace=wrap;rounded=0;labelBorderColor=none;fontSize=10;" vertex="1" parent="NQuVq-s22UP6wrSI71qQ-2">
          <mxGeometry x="356" y="120" width="35" height="15" as="geometry" />
        </mxCell>
        <mxCell id="tfCY2UT2nl94X6TJJSbJ-16" value="" style="edgeStyle=orthogonalEdgeStyle;rounded=0;orthogonalLoop=1;jettySize=auto;html=1;dashed=1;fontSize=12;startArrow=none;startFill=0;endArrow=none;endFill=0;" edge="1" parent="NQuVq-s22UP6wrSI71qQ-2" source="NQuVq-s22UP6wrSI71qQ-3">
          <mxGeometry relative="1" as="geometry">
            <mxPoint x="432.5" y="230" as="sourcePoint" />
            <mxPoint x="372" y="120" as="targetPoint" />
          </mxGeometry>
        </mxCell>
        <mxCell id="NQuVq-s22UP6wrSI71qQ-38" value="View_JS" style="ellipse;whiteSpace=wrap;html=1;fontSize=10;" parent="NQuVq-s22UP6wrSI71qQ-2" vertex="1">
          <mxGeometry x="381" y="330" width="120" height="40" as="geometry" />
        </mxCell>
        <mxCell id="NQuVq-s22UP6wrSI71qQ-39" style="edgeStyle=orthogonalEdgeStyle;rounded=0;orthogonalLoop=1;jettySize=auto;html=1;entryX=0.5;entryY=0;entryDx=0;entryDy=0;dashed=1;fontSize=10;startArrow=none;startFill=0;endArrow=open;endFill=0;" parent="NQuVq-s22UP6wrSI71qQ-2" source="NQuVq-s22UP6wrSI71qQ-40" target="NQuVq-s22UP6wrSI71qQ-38" edge="1">
          <mxGeometry relative="1" as="geometry">
            <Array as="points">
              <mxPoint x="442" y="308" />
            </Array>
          </mxGeometry>
        </mxCell>
        <mxCell id="tfCY2UT2nl94X6TJJSbJ-18" value="Registration" style="ellipse;whiteSpace=wrap;html=1;fontSize=10;" vertex="1" parent="NQuVq-s22UP6wrSI71qQ-2">
          <mxGeometry x="125" y="30" width="85" height="30" as="geometry" />
        </mxCell>
        <mxCell id="tfCY2UT2nl94X6TJJSbJ-20" value="Vehicle" style="ellipse;whiteSpace=wrap;html=1;fontSize=10;" vertex="1" parent="NQuVq-s22UP6wrSI71qQ-2">
          <mxGeometry x="40" y="70" width="85" height="30" as="geometry" />
        </mxCell>
        <mxCell id="tfCY2UT2nl94X6TJJSbJ-21" value="Customer_Reg" style="ellipse;whiteSpace=wrap;html=1;fontSize=10;" vertex="1" parent="NQuVq-s22UP6wrSI71qQ-2">
          <mxGeometry x="210" y="70" width="85" height="30" as="geometry" />
        </mxCell>
        <mxCell id="tfCY2UT2nl94X6TJJSbJ-23" value="Vehicle_Reg_Info" style="ellipse;whiteSpace=wrap;html=1;fontSize=10;" vertex="1" parent="NQuVq-s22UP6wrSI71qQ-2">
          <mxGeometry x="30" y="170" width="85" height="30" as="geometry" />
        </mxCell>
        <mxCell id="tfCY2UT2nl94X6TJJSbJ-61" style="edgeStyle=orthogonalEdgeStyle;rounded=0;orthogonalLoop=1;jettySize=auto;html=1;entryX=0.611;entryY=0.042;entryDx=0;entryDy=0;entryPerimeter=0;fontSize=12;startArrow=none;startFill=0;endArrow=open;endFill=0;dashed=1;" edge="1" parent="NQuVq-s22UP6wrSI71qQ-2" source="tfCY2UT2nl94X6TJJSbJ-30" target="tfCY2UT2nl94X6TJJSbJ-23">
          <mxGeometry relative="1" as="geometry" />
        </mxCell>
        <mxCell id="tfCY2UT2nl94X6TJJSbJ-30" value="&amp;lt;&amp;lt;include&amp;gt;&amp;gt;" style="text;html=1;strokeColor=none;fillColor=none;align=center;verticalAlign=middle;whiteSpace=wrap;rounded=0;labelBorderColor=none;fontSize=10;rotation=0;" vertex="1" parent="NQuVq-s22UP6wrSI71qQ-2">
          <mxGeometry x="65" y="120" width="35" height="15" as="geometry" />
        </mxCell>
        <mxCell id="tfCY2UT2nl94X6TJJSbJ-65" style="edgeStyle=orthogonalEdgeStyle;rounded=0;orthogonalLoop=1;jettySize=auto;html=1;entryX=0.001;entryY=0.525;entryDx=0;entryDy=0;entryPerimeter=0;dashed=1;fontSize=12;startArrow=none;startFill=0;endArrow=none;endFill=0;" edge="1" parent="NQuVq-s22UP6wrSI71qQ-2" source="tfCY2UT2nl94X6TJJSbJ-35" target="tfCY2UT2nl94X6TJJSbJ-20">
          <mxGeometry relative="1" as="geometry">
            <Array as="points">
              <mxPoint x="20" y="45" />
              <mxPoint x="20" y="86" />
            </Array>
          </mxGeometry>
        </mxCell>
        <mxCell id="tfCY2UT2nl94X6TJJSbJ-35" value="&amp;lt;&amp;lt;extend&amp;gt;&amp;gt;" style="text;html=1;strokeColor=none;fillColor=none;align=center;verticalAlign=middle;whiteSpace=wrap;rounded=0;labelBorderColor=none;fontSize=10;rotation=0;" vertex="1" parent="NQuVq-s22UP6wrSI71qQ-2">
          <mxGeometry x="55" y="37.5" width="35" height="15" as="geometry" />
        </mxCell>
        <mxCell id="tfCY2UT2nl94X6TJJSbJ-41" value="Customer_Info" style="ellipse;whiteSpace=wrap;html=1;fontSize=10;" vertex="1" parent="NQuVq-s22UP6wrSI71qQ-2">
          <mxGeometry x="125" y="170" width="85" height="30" as="geometry" />
        </mxCell>
        <mxCell id="tfCY2UT2nl94X6TJJSbJ-44" style="edgeStyle=orthogonalEdgeStyle;rounded=0;orthogonalLoop=1;jettySize=auto;html=1;entryX=0.911;entryY=0.828;entryDx=0;entryDy=0;entryPerimeter=0;dashed=1;fontSize=12;startArrow=none;startFill=0;endArrow=none;endFill=0;" edge="1" parent="NQuVq-s22UP6wrSI71qQ-2" source="tfCY2UT2nl94X6TJJSbJ-47" target="tfCY2UT2nl94X6TJJSbJ-21">
          <mxGeometry relative="1" as="geometry" />
        </mxCell>
        <mxCell id="tfCY2UT2nl94X6TJJSbJ-42" value="Customer_Type" style="ellipse;whiteSpace=wrap;html=1;fontSize=10;" vertex="1" parent="NQuVq-s22UP6wrSI71qQ-2">
          <mxGeometry x="220" y="170" width="85" height="30" as="geometry" />
        </mxCell>
        <mxCell id="tfCY2UT2nl94X6TJJSbJ-47" value="&amp;lt;&amp;lt;include&amp;gt;&amp;gt;" style="text;html=1;strokeColor=none;fillColor=none;align=center;verticalAlign=middle;whiteSpace=wrap;rounded=0;labelBorderColor=none;fontSize=10;" vertex="1" parent="NQuVq-s22UP6wrSI71qQ-2">
          <mxGeometry x="270" y="115" width="35" height="15" as="geometry" />
        </mxCell>
        <mxCell id="tfCY2UT2nl94X6TJJSbJ-48" value="" style="edgeStyle=orthogonalEdgeStyle;rounded=0;orthogonalLoop=1;jettySize=auto;html=1;entryX=0.504;entryY=0.941;entryDx=0;entryDy=0;entryPerimeter=0;dashed=1;fontSize=12;startArrow=open;startFill=0;endArrow=none;endFill=0;" edge="1" parent="NQuVq-s22UP6wrSI71qQ-2" source="tfCY2UT2nl94X6TJJSbJ-42" target="tfCY2UT2nl94X6TJJSbJ-47">
          <mxGeometry relative="1" as="geometry">
            <mxPoint x="322.4999999999998" y="310" as="sourcePoint" />
            <mxPoint x="349.9849999999999" y="230.01" as="targetPoint" />
          </mxGeometry>
        </mxCell>
        <mxCell id="tfCY2UT2nl94X6TJJSbJ-52" value="" style="endArrow=none;dashed=1;html=1;rounded=0;fontSize=12;edgeStyle=orthogonalEdgeStyle;entryX=1;entryY=0.5;entryDx=0;entryDy=0;exitX=1;exitY=0.5;exitDx=0;exitDy=0;" edge="1" parent="NQuVq-s22UP6wrSI71qQ-2" source="tfCY2UT2nl94X6TJJSbJ-53" target="tfCY2UT2nl94X6TJJSbJ-21">
          <mxGeometry width="50" height="50" relative="1" as="geometry">
            <mxPoint x="292" y="152.5" as="sourcePoint" />
            <mxPoint x="342" y="102.5" as="targetPoint" />
            <Array as="points">
              <mxPoint x="310" y="45" />
              <mxPoint x="310" y="85" />
            </Array>
          </mxGeometry>
        </mxCell>
        <mxCell id="tfCY2UT2nl94X6TJJSbJ-53" value="&amp;lt;&amp;lt;extend&amp;gt;&amp;gt;" style="text;html=1;strokeColor=none;fillColor=none;align=center;verticalAlign=middle;whiteSpace=wrap;rounded=0;labelBorderColor=none;fontSize=10;rotation=0;" vertex="1" parent="NQuVq-s22UP6wrSI71qQ-2">
          <mxGeometry x="250" y="37.5" width="35" height="15" as="geometry" />
        </mxCell>
        <mxCell id="tfCY2UT2nl94X6TJJSbJ-54" value="" style="endArrow=none;dashed=1;html=1;rounded=0;fontSize=12;entryX=0;entryY=0.5;entryDx=0;entryDy=0;exitX=1;exitY=0.5;exitDx=0;exitDy=0;endFill=0;startArrow=open;startFill=0;" edge="1" parent="NQuVq-s22UP6wrSI71qQ-2" source="tfCY2UT2nl94X6TJJSbJ-18" target="tfCY2UT2nl94X6TJJSbJ-53">
          <mxGeometry width="50" height="50" relative="1" as="geometry">
            <mxPoint x="230" y="110" as="sourcePoint" />
            <mxPoint x="280" y="60" as="targetPoint" />
          </mxGeometry>
        </mxCell>
        <mxCell id="tfCY2UT2nl94X6TJJSbJ-57" value="&amp;lt;&amp;lt;include&amp;gt;&amp;gt;" style="text;html=1;strokeColor=none;fillColor=none;align=center;verticalAlign=middle;whiteSpace=wrap;rounded=0;labelBorderColor=none;fontSize=10;" vertex="1" parent="NQuVq-s22UP6wrSI71qQ-2">
          <mxGeometry x="200" y="130" width="35" height="15" as="geometry" />
        </mxCell>
        <mxCell id="tfCY2UT2nl94X6TJJSbJ-58" value="" style="edgeStyle=orthogonalEdgeStyle;rounded=0;orthogonalLoop=1;jettySize=auto;html=1;dashed=1;fontSize=12;startArrow=open;startFill=0;endArrow=none;endFill=0;" edge="1" parent="NQuVq-s22UP6wrSI71qQ-2" source="tfCY2UT2nl94X6TJJSbJ-41" target="tfCY2UT2nl94X6TJJSbJ-57">
          <mxGeometry relative="1" as="geometry">
            <mxPoint x="227.5" y="310" as="sourcePoint" />
            <mxPoint x="200" y="160" as="targetPoint" />
            <Array as="points">
              <mxPoint x="168" y="160" />
            </Array>
          </mxGeometry>
        </mxCell>
        <mxCell id="tfCY2UT2nl94X6TJJSbJ-59" value="" style="endArrow=none;dashed=1;html=1;rounded=0;fontSize=12;entryX=0.5;entryY=1;entryDx=0;entryDy=0;exitX=0.5;exitY=0;exitDx=0;exitDy=0;edgeStyle=orthogonalEdgeStyle;" edge="1" parent="NQuVq-s22UP6wrSI71qQ-2" source="tfCY2UT2nl94X6TJJSbJ-57" target="tfCY2UT2nl94X6TJJSbJ-21">
          <mxGeometry width="50" height="50" relative="1" as="geometry">
            <mxPoint x="120" y="190" as="sourcePoint" />
            <mxPoint x="170" y="140" as="targetPoint" />
          </mxGeometry>
        </mxCell>
        <mxCell id="tfCY2UT2nl94X6TJJSbJ-60" value="" style="endArrow=none;dashed=1;html=1;rounded=0;fontSize=12;exitX=0.5;exitY=1;exitDx=0;exitDy=0;edgeStyle=orthogonalEdgeStyle;entryX=0.5;entryY=0;entryDx=0;entryDy=0;" edge="1" parent="NQuVq-s22UP6wrSI71qQ-2" source="tfCY2UT2nl94X6TJJSbJ-20" target="tfCY2UT2nl94X6TJJSbJ-30">
          <mxGeometry width="50" height="50" relative="1" as="geometry">
            <mxPoint x="80" y="150" as="sourcePoint" />
            <mxPoint x="130" y="100" as="targetPoint" />
          </mxGeometry>
        </mxCell>
        <mxCell id="tfCY2UT2nl94X6TJJSbJ-62" value="" style="endArrow=open;dashed=1;html=1;rounded=0;fontSize=12;entryX=0;entryY=0.5;entryDx=0;entryDy=0;edgeStyle=orthogonalEdgeStyle;endFill=0;" edge="1" parent="NQuVq-s22UP6wrSI71qQ-2" source="tfCY2UT2nl94X6TJJSbJ-35" target="tfCY2UT2nl94X6TJJSbJ-18">
          <mxGeometry width="50" height="50" relative="1" as="geometry">
            <mxPoint x="100" y="45" as="sourcePoint" />
            <mxPoint x="150" y="80" as="targetPoint" />
          </mxGeometry>
        </mxCell>
        <mxCell id="NQuVq-s22UP6wrSI71qQ-5" value="" style="endArrow=none;html=1;rounded=0;entryX=0;entryY=1;entryDx=0;entryDy=0;entryPerimeter=0;exitX=1;exitY=0.5;exitDx=0;exitDy=0;edgeStyle=orthogonalEdgeStyle;" parent="1" source="NQuVq-s22UP6wrSI71qQ-3" edge="1">
          <mxGeometry width="50" height="50" relative="1" as="geometry">
            <mxPoint x="506" y="182" as="sourcePoint" />
            <mxPoint x="516" y="82" as="targetPoint" />
          </mxGeometry>
        </mxCell>
        <mxCell id="NQuVq-s22UP6wrSI71qQ-43" style="edgeStyle=orthogonalEdgeStyle;rounded=0;orthogonalLoop=1;jettySize=auto;html=1;entryX=0.5;entryY=0;entryDx=0;entryDy=0;entryPerimeter=0;fontSize=10;startArrow=none;startFill=0;endArrow=none;endFill=0;" parent="1" source="NQuVq-s22UP6wrSI71qQ-38" target="NQuVq-s22UP6wrSI71qQ-42" edge="1">
          <mxGeometry relative="1" as="geometry" />
        </mxCell>
        <mxCell id="tfCY2UT2nl94X6TJJSbJ-17" style="edgeStyle=orthogonalEdgeStyle;rounded=0;orthogonalLoop=1;jettySize=auto;html=1;entryX=0.384;entryY=0.965;entryDx=0;entryDy=0;entryPerimeter=0;fontSize=12;startArrow=none;startFill=0;endArrow=none;endFill=0;" edge="1" parent="1" source="NQuVq-s22UP6wrSI71qQ-42" target="NQuVq-s22UP6wrSI71qQ-44">
          <mxGeometry relative="1" as="geometry" />
        </mxCell>
        <mxCell id="NQuVq-s22UP6wrSI71qQ-42" value="Mechanic" style="shape=umlActor;verticalLabelPosition=bottom;verticalAlign=top;html=1;outlineConnect=0;" parent="1" vertex="1">
          <mxGeometry x="506" y="632" width="30" height="60" as="geometry" />
        </mxCell>
        <mxCell id="NQuVq-s22UP6wrSI71qQ-73" value="Sys_Admin" style="shape=umlActor;verticalLabelPosition=bottom;verticalAlign=top;html=1;outlineConnect=0;" parent="1" vertex="1">
          <mxGeometry x="20" y="450.75" width="30" height="60" as="geometry" />
        </mxCell>
        <mxCell id="NQuVq-s22UP6wrSI71qQ-74" style="edgeStyle=orthogonalEdgeStyle;rounded=0;orthogonalLoop=1;jettySize=auto;html=1;entryX=0.5;entryY=0;entryDx=0;entryDy=0;entryPerimeter=0;fontSize=10;startArrow=none;startFill=0;endArrow=none;endFill=0;" parent="1" source="NQuVq-s22UP6wrSI71qQ-60" target="NQuVq-s22UP6wrSI71qQ-73" edge="1">
          <mxGeometry relative="1" as="geometry" />
        </mxCell>
        <mxCell id="NQuVq-s22UP6wrSI71qQ-75" style="edgeStyle=orthogonalEdgeStyle;rounded=0;orthogonalLoop=1;jettySize=auto;html=1;fontSize=10;startArrow=none;startFill=0;endArrow=none;endFill=0;" parent="1" source="NQuVq-s22UP6wrSI71qQ-61" target="NQuVq-s22UP6wrSI71qQ-73" edge="1">
          <mxGeometry relative="1" as="geometry" />
        </mxCell>
        <mxCell id="NQuVq-s22UP6wrSI71qQ-76" style="edgeStyle=orthogonalEdgeStyle;rounded=0;orthogonalLoop=1;jettySize=auto;html=1;fontSize=10;startArrow=none;startFill=0;endArrow=none;endFill=0;" parent="1" source="NQuVq-s22UP6wrSI71qQ-72" edge="1" target="NQuVq-s22UP6wrSI71qQ-73">
          <mxGeometry relative="1" as="geometry">
            <mxPoint x="80" y="540.75" as="targetPoint" />
          </mxGeometry>
        </mxCell>
        <mxCell id="tfCY2UT2nl94X6TJJSbJ-49" style="edgeStyle=orthogonalEdgeStyle;rounded=0;orthogonalLoop=1;jettySize=auto;html=1;fontSize=12;startArrow=none;startFill=0;endArrow=none;endFill=0;" edge="1" parent="1" source="IpR222tjhXB2upOazpvF-1" target="tfCY2UT2nl94X6TJJSbJ-18">
          <mxGeometry relative="1" as="geometry" />
        </mxCell>
        <mxCell id="NQuVq-s22UP6wrSI71qQ-6" value="" style="endArrow=none;html=1;rounded=0;exitX=0;exitY=0.5;exitDx=0;exitDy=0;edgeStyle=orthogonalEdgeStyle;" parent="1" source="NQuVq-s22UP6wrSI71qQ-4" edge="1" target="IpR222tjhXB2upOazpvF-1">
          <mxGeometry width="50" height="50" relative="1" as="geometry">
            <mxPoint x="493" y="182" as="sourcePoint" />
            <mxPoint x="522" y="82" as="targetPoint" />
            <Array as="points">
              <mxPoint x="522" y="177" />
            </Array>
          </mxGeometry>
        </mxCell>
        <mxCell id="IpR222tjhXB2upOazpvF-1" value="Service_Advisor" style="shape=umlActor;verticalLabelPosition=bottom;verticalAlign=top;html=1;outlineConnect=0;" parent="1" vertex="1">
          <mxGeometry x="506" y="20" width="30" height="60" as="geometry" />
        </mxCell>
      </root>
    </mxGraphModel>
  </diagram>
</mxfile>
